<svg width="1200" height="698" viewBox="0 0 1200 698" fill="none" xmlns="http://www.w3.org/2000/svg"><g clip-path="url(#clip0)"><path d="M1108.85 0H72.016a28.538 28.538 0 00-28.538 28.538v577.706a28.535 28.535 0 0017.617 26.366 28.542 28.542 0 0010.921 2.173H1108.85a28.538 28.538 0 0028.54-28.539V28.538c0-7.569-3.01-14.828-8.36-20.18A28.534 28.534 0 001108.85 0z" fill="url(#paint0_linear)"/><path d="M1099.13 50.435H81.74v573.913h1017.39V50.435z" fill="#262626"/><path d="M589.565 34.783c5.763 0 10.435-4.672 10.435-10.435 0-5.763-4.672-10.435-10.435-10.435-5.763 0-10.435 4.672-10.435 10.435 0 5.763 4.672 10.435 10.435 10.435z" fill="#fff"/><path d="M81.74 624.349V50.436l726.434 573.913H81.739z" fill="#1A1A1A"/><path d="M837 349H693v19h144v-19zM962 241H568v9h394v-9zM962 274H568v9h394v-9zM962 308H568v8h394v-8z" fill="#3F3D56"/><path d="M1165.96 613.913h-99.29v-7.154c0-.376-.15-.737-.42-1.003a1.411 1.411 0 00-1-.415h-34.04a1.42 1.42 0 00-1.32.875c-.07.172-.1.357-.1.543v7.154h-21.28v-7.154c0-.186-.04-.371-.11-.543a1.408 1.408 0 00-.3-.46 1.454 1.454 0 00-.47-.307 1.37 1.37 0 00-.54-.108h-34.04c-.187 0-.371.036-.543.108a1.414 1.414 0 00-.876 1.31v7.154h-21.276v-7.154a1.425 1.425 0 00-.416-1.003 1.411 1.411 0 00-1.003-.415h-34.043c-.186 0-.37.036-.542.108a1.414 1.414 0 00-.876 1.31v7.154h-21.276v-7.154a1.425 1.425 0 00-.416-1.003 1.411 1.411 0 00-1.003-.415h-34.043c-.186 0-.37.036-.542.108a1.414 1.414 0 00-.876 1.31v7.154h-21.276v-7.154a1.425 1.425 0 00-.416-1.003 1.411 1.411 0 00-1.003-.415h-34.042c-.187 0-.371.036-.543.108a1.414 1.414 0 00-.876 1.31v7.154h-21.277v-7.154a1.406 1.406 0 00-.415-1.003 1.411 1.411 0 00-1.003-.415h-34.042c-.187 0-.371.036-.543.108a1.414 1.414 0 00-.876 1.31v7.154h-21.276v-7.154a1.425 1.425 0 00-.416-1.003 1.411 1.411 0 00-1.003-.415H449.645c-.186 0-.37.036-.542.108a1.405 1.405 0 00-.768.767 1.425 1.425 0 00-.108.543v7.154H426.95v-7.154a1.407 1.407 0 00-.415-1.003 1.411 1.411 0 00-1.003-.415h-34.043a1.416 1.416 0 00-1.418 1.418v7.154h-21.277v-7.154a1.407 1.407 0 00-.415-1.003 1.411 1.411 0 00-1.003-.415h-34.043c-.186 0-.37.036-.542.108a1.405 1.405 0 00-.768.767 1.425 1.425 0 00-.108.543v7.154h-21.277v-7.154a1.407 1.407 0 00-.415-1.003 1.411 1.411 0 00-1.003-.415h-34.043a1.41 1.41 0 00-1.003.415 1.427 1.427 0 00-.415 1.003v7.154h-21.277v-7.154a1.407 1.407 0 00-.415-1.003 1.411 1.411 0 00-1.003-.415h-34.043a1.41 1.41 0 00-1.003.415 1.427 1.427 0 00-.415 1.003v7.154h-21.277v-7.154a1.407 1.407 0 00-.415-1.003 1.411 1.411 0 00-1.003-.415h-34.043a1.418 1.418 0 00-1.418 1.418v7.154H136.17v-7.154a1.407 1.407 0 00-.415-1.003 1.411 1.411 0 00-1.003-.415h-34.043a1.418 1.418 0 00-1.418 1.418v7.154H34.043A34.044 34.044 0 000 647.956v15.393a34.042 34.042 0 0034.042 34.042H1165.96a34.043 34.043 0 0034.04-34.042v-15.393c0-4.471-.88-8.898-2.59-13.028a34.05 34.05 0 00-31.45-21.015z" fill="url(#paint1_linear)"/></g><defs><linearGradient id="paint0_linear" x1="590.435" y1="0" x2="590.435" y2="634.783" gradientUnits="userSpaceOnUse"><stop stop-color="#3F3D56"/><stop offset="1" stop-color="#16151E"/></linearGradient><linearGradient id="paint1_linear" x1="600" y1="605.341" x2="600" y2="697.391" gradientUnits="userSpaceOnUse"><stop stop-color="#3F3D56"/><stop offset="1" stop-color="#16151E"/></linearGradient><clipPath id="clip0"><path fill="#fff" d="M0 0h1200v697.391H0z"/></clipPath></defs></svg>